<svg width="21" height="21" viewBox="0 0 21 21" fill="none" xmlns="http://www.w3.org/2000/svg">
<g clip-path="url(#clip0_173_2022)">
<path d="M20.9579 9.85375C20.8983 10.1408 20.8473 10.4301 20.7759 10.7144C20.4739 11.9312 19.8894 13.0106 19.1429 14.0073C18.0812 15.4256 16.783 16.6001 15.3651 17.6499C13.8837 18.7418 12.2897 19.672 10.6103 20.4247C10.2232 20.5994 9.83334 20.462 9.66912 20.0976C9.51538 19.7569 9.66549 19.3876 10.0508 19.2115C11.1875 18.6974 12.2855 18.1015 13.3359 17.4284C14.9908 16.3549 16.5096 15.1267 17.7587 13.5933C18.5393 12.634 19.1952 11.5964 19.48 10.3737C19.8157 8.93307 19.5555 7.56707 18.8622 6.28203C18.2113 5.07615 17.2606 4.14774 16.1084 3.41629C14.9116 2.65847 13.602 2.19722 12.2064 1.98069C11.1497 1.81886 10.0753 1.80951 9.01592 1.95295C7.48661 2.15628 6.0592 2.64073 4.77235 3.48998C3.22576 4.51255 2.06991 5.85536 1.57455 7.68579C1.33786 8.56902 1.30674 9.49474 1.48357 10.3919C1.85111 12.3319 2.92235 13.8035 4.5158 14.9229C5.72577 15.7717 7.07859 16.263 8.53647 16.4727C8.88582 16.5227 9.23835 16.55 9.58907 16.591C9.99027 16.6365 10.245 16.9444 10.2077 17.3297C10.1736 17.6818 9.85426 17.9379 9.47489 17.9165C7.98971 17.8346 6.56366 17.5071 5.21722 16.8703C3.54554 16.082 2.17089 14.9411 1.19836 13.3527C0.566822 12.3336 0.182515 11.1808 0.0761737 9.98657C-0.151266 7.48064 0.733474 5.39229 2.47794 3.63873C3.92991 2.18312 5.70394 1.29656 7.69267 0.826666C8.94533 0.527645 10.2381 0.433023 11.5209 0.54646C13.8672 0.755705 16.0056 1.51808 17.8438 3.02601C19.4236 4.32287 20.4821 5.94542 20.861 7.97964C20.896 8.16751 20.881 8.36402 20.9597 8.54415L20.9579 9.85375Z" fill="#D7C28A"/>
<path d="M12.0508 9.52346C12.0508 8.91255 12.0508 8.30165 12.0508 7.6912C12.0491 7.57567 12.0583 7.46024 12.0781 7.3464C12.1381 7.04482 12.336 6.88789 12.6189 6.90381C12.8773 6.91836 13.0711 7.11123 13.1061 7.39189C13.1159 7.4661 13.1209 7.54085 13.1211 7.61569C13.1211 8.83431 13.1189 10.0525 13.1107 11.2711C13.1107 11.5822 12.9501 11.8115 12.7245 11.8825C12.4429 11.9712 12.1632 11.8797 11.9739 11.6095C11.61 11.0932 11.3448 10.5178 11.0273 9.97197C10.9102 9.75515 10.7776 9.54704 10.6307 9.34924C10.6307 9.40519 10.6307 9.46159 10.6307 9.518C10.6266 10.1239 10.6307 10.7298 10.6157 11.3352C10.607 11.6782 10.3914 11.8979 10.0976 11.9025C9.79005 11.9075 9.5708 11.6946 9.56034 11.3371C9.52258 10.0634 9.52577 8.79247 9.56034 7.52017C9.56807 7.23132 9.78096 6.97431 10.0261 6.91472C10.3041 6.84695 10.5333 6.93155 10.6975 7.21267C11.1151 7.92638 11.5163 8.64872 11.9257 9.36789C11.9553 9.4202 11.9862 9.47251 12.0167 9.52482L12.0508 9.52346Z" fill="#D7C28A"/>
<path d="M13.7265 9.40455C13.7265 8.83959 13.7238 8.27463 13.7265 7.71012C13.7297 7.19975 13.9471 6.97322 14.4543 6.96685C15.1008 6.95897 15.7472 6.95897 16.3934 6.96685C16.8483 6.97276 17.0758 7.27571 16.9557 7.69147C16.9339 7.7815 16.8838 7.86215 16.8127 7.92152C16.7416 7.9809 16.6533 8.01586 16.5608 8.02126C16.1815 8.06675 15.7998 8.03127 15.4195 8.04082C15.243 8.04491 15.0061 7.97805 14.906 8.06675C14.7895 8.17046 14.8869 8.41337 14.8655 8.5935C14.8478 8.74497 14.896 8.79001 15.0525 8.78591C15.4741 8.77454 15.8963 8.78591 16.3179 8.78364C16.5267 8.78364 16.6909 8.86006 16.7796 9.05657C16.8231 9.14564 16.8423 9.24458 16.8354 9.34344C16.8284 9.44231 16.7955 9.53759 16.7401 9.61971C16.7005 9.6838 16.6446 9.73624 16.5781 9.77164C16.5116 9.80705 16.4369 9.82416 16.3616 9.82122C15.9195 9.82531 15.4773 9.83168 15.0352 9.82622C14.9069 9.82622 14.8532 9.85215 14.865 9.99134C14.886 10.2397 14.8418 10.4917 14.8887 10.7392C15.1321 10.7433 15.3759 10.7496 15.6192 10.7514C15.9185 10.7514 16.2183 10.7514 16.5176 10.7514C16.8433 10.756 17.0353 10.9466 17.048 11.2696C17.0607 11.5925 16.8815 11.8154 16.5567 11.8213C15.8157 11.8368 15.0738 11.8395 14.3328 11.8213C13.9312 11.8113 13.7328 11.583 13.7278 11.1781C13.7206 10.5868 13.7278 9.99544 13.7278 9.40409L13.7265 9.40455Z" fill="#D7C28A"/>
<path d="M4.37 9.39088C4.37 8.8332 4.37 8.27552 4.37 7.71784C4.36874 7.59557 4.38094 7.47353 4.40639 7.35393C4.46461 7.0851 4.65293 6.91452 4.90676 6.9036C5.02988 6.89519 5.15218 6.92907 5.25342 6.99963C5.35467 7.07019 5.42879 7.1732 5.46353 7.29162C5.50083 7.42241 5.51741 7.55825 5.51266 7.69418C5.51266 8.63988 5.51539 9.58512 5.50811 10.5308C5.50811 10.6782 5.53586 10.7273 5.69415 10.7219C6.0949 10.7091 6.49656 10.7119 6.89776 10.7219C7.28578 10.7296 7.50457 10.9761 7.47273 11.3523C7.4509 11.6139 7.28669 11.7954 7.0224 11.8218C6.59527 11.8641 6.16632 11.8322 5.73782 11.8386C5.49992 11.8422 5.26111 11.8477 5.02412 11.8345C4.57697 11.8099 4.37546 11.597 4.37136 11.1485C4.36636 10.5636 4.37136 9.97859 4.37136 9.39361L4.37 9.39088Z" fill="#D7C28A"/>
<path d="M8.90555 9.40519C8.90555 10.0311 8.90555 10.6567 8.90555 11.282C8.90908 11.381 8.88926 11.4793 8.84769 11.5692C8.80612 11.659 8.74398 11.7378 8.66629 11.7992C8.35515 12.0449 7.90709 11.8711 7.80793 11.4653C7.78023 11.346 7.76679 11.2239 7.7679 11.1014C7.76487 9.9794 7.76487 8.85736 7.7679 7.73533C7.7671 7.5929 7.78235 7.45084 7.81339 7.31183C7.87798 7.03345 8.12089 6.8756 8.41019 6.90608C8.68721 6.93565 8.89555 7.16536 8.90055 7.48696C8.90965 8.12379 8.90328 8.76517 8.90328 9.40428L8.90555 9.40519Z" fill="#D7C28A"/>
</g>
<defs>
<clipPath id="clip0_173_2022">
<rect width="21" height="21" fill="white"/>
</clipPath>
</defs>
</svg>
