<svg width="21" height="21" viewBox="0 0 21 21" fill="none" xmlns="http://www.w3.org/2000/svg">
<g clip-path="url(#clip0_173_2025)">
<path d="M10.4992 19.8817C9.11645 19.8817 7.7284 19.8976 6.34562 19.8765C3.39536 19.8342 1.13647 17.6017 1.1048 14.6673C1.07314 11.8806 1.07314 9.08869 1.1048 6.30202C1.14175 3.4098 3.40064 1.16674 6.3034 1.13508C9.10062 1.10341 11.8978 1.10341 14.6951 1.13508C17.6031 1.16674 19.862 3.4098 19.8937 6.30202C19.9253 9.11508 19.9306 11.9281 19.8937 14.7412C19.8567 17.5859 17.5978 19.8131 14.7373 19.8712C13.3228 19.9029 11.9084 19.8817 10.4992 19.8817ZM18.247 10.577C18.247 9.24702 18.2628 7.91702 18.2417 6.58702C18.2048 4.21202 16.7956 2.80813 14.4101 2.78702C11.7923 2.76591 9.17979 2.76591 6.56201 2.78702C4.18175 2.80813 2.77258 4.22258 2.75147 6.60286C2.73036 9.21008 2.73036 11.8173 2.75147 14.4245C2.77258 16.7995 4.19231 18.2034 6.58312 18.2245C9.2009 18.2456 11.8134 18.2456 14.4312 18.2245C16.8115 18.2034 18.2101 16.789 18.2417 14.4087C18.2628 13.1315 18.247 11.8542 18.247 10.577Z" fill="#D7C28A"/>
<path d="M15.3437 10.5343C15.3332 13.1363 13.0848 15.3529 10.4723 15.3424C7.85984 15.3318 5.63792 13.0888 5.64847 10.4868C5.65903 7.88488 7.90206 5.66819 10.5198 5.67875C13.1323 5.68403 15.3596 7.9271 15.3437 10.5343ZM13.676 10.5185C13.6812 8.76627 12.2615 7.34655 10.504 7.34127C8.74651 7.33599 7.32151 8.75044 7.31623 10.5027C7.31095 12.2549 8.73068 13.6799 10.4882 13.6852C12.2457 13.6852 13.6707 12.2707 13.676 10.5185Z" fill="#D7C28A"/>
<path d="M16.7479 5.46282C16.7532 6.10143 16.199 6.64504 15.5445 6.63976C14.8901 6.63448 14.4045 6.16477 14.3834 5.52088C14.3623 4.87171 14.8848 4.30171 15.5287 4.2806C16.1515 4.26477 16.7426 4.82949 16.7479 5.46282Z" fill="#D7C28A"/>
</g>
<defs>
<clipPath id="clip0_173_2025">
<rect width="21" height="21" fill="white"/>
</clipPath>
</defs>
</svg>
