<svg width="500" height="500" viewBox="0 0 500 500" fill="none" xmlns="http://www.w3.org/2000/svg">
<path d="M60.8 412.4C54.6667 412.4 48.1333 411.2 41.2 408.8C34.5333 406.4 28.9333 401.467 24.4 394C19.8667 386.533 17.6 375.333 17.6 360.4C17.6 350 18.8 339.733 21.2 329.6C23.6 319.2 27.0667 310.533 31.6 303.6C36.4 296.667 41.8667 293.2 48 293.2C51.2 293.2 54.9333 294.267 59.2 296.4C54.4 308.667 50.8 320.133 48.4 330.8C46 341.467 44.8 351.333 44.8 360.4C44.8 372.4 46.9333 381.733 51.2 388.4C55.4667 395.067 61.7333 398.4 70 398.4C76.9333 398.4 83.0667 395.467 88.4 389.6C94 383.733 99.7333 372.667 105.6 356.4C109.867 344.667 114.267 330.533 118.8 314C123.6 297.2 128.267 279.333 132.8 260.4C137.6 241.2 142.133 222.267 146.4 203.6C150.667 184.667 154.533 167.2 158 151.2C161.467 135.2 164.133 121.867 166 111.2C152.933 111.2 141.867 111.467 132.8 112C124 112.533 116 113.333 108.8 114.4C101.6 115.467 93.7333 117.067 85.2 119.2C86.5333 110.133 92.2667 103.2 102.4 98.4C112.8 93.3333 128.8 90.8 150.4 90.8C161.067 90.8 171.867 91.3333 182.8 92.4C193.733 93.4667 203.733 94.6667 212.8 96C222.133 97.0667 229.2 98.1333 234 99.2C231.067 104.267 226.267 107.467 219.6 108.8C212.933 110.133 207.467 110.8 203.2 110.8C197.867 110.8 192.8 110.933 188 111.2C183.467 111.2 179.067 111.2 174.8 111.2C177.733 113.333 179.867 116.267 181.2 120C182.533 123.733 183.2 127.067 183.2 130C183.2 133.467 182.267 141.2 180.4 153.2C178.533 164.933 175.867 179.2 172.4 196C168.933 212.8 164.8 230.667 160 249.6C155.2 268.533 150 287.067 144.4 305.2C138.8 323.333 132.8 339.467 126.4 353.6C119.467 369.6 112.4 381.733 105.2 390C98.2667 398.533 91.0667 404.4 83.6 407.6C76.4 410.8 68.8 412.4 60.8 412.4ZM187.653 412.8C189.253 409.067 193.653 399.2 200.853 383.2C208.053 367.467 217.386 346.933 228.853 321.6C240.586 296 253.653 267.067 268.053 234.8C282.72 202.267 298.186 167.867 314.453 131.6C315.253 129.733 316.053 127.333 316.853 124.4C317.92 121.2 318.453 118.133 318.453 115.2C318.453 112.267 317.52 109.867 315.653 108C314.053 105.867 310.453 104.8 304.853 104.8C293.653 104.8 284.32 108.667 276.853 116.4C269.653 123.867 264.186 133.2 260.453 144.4C256.986 155.6 255.253 166.667 255.253 177.6C255.253 180.267 255.253 182.533 255.253 184.4C255.52 186.267 255.786 188.133 256.053 190C250.986 190 246.853 188.267 243.653 184.8C240.72 181.067 238.453 176.667 236.853 171.6C235.52 166.267 234.853 161.467 234.853 157.2C234.853 148.4 237.253 140 242.053 132C246.853 124 252.986 116.8 260.453 110.4C268.186 104 276.586 99.0667 285.653 95.6C294.986 91.8667 304.053 90 312.853 90C321.653 90 328.986 92.5333 334.853 97.6C340.986 102.4 345.52 111.2 348.453 124C351.653 136.8 353.253 155.333 353.253 179.6C353.253 196.133 352.586 213.733 351.253 232.4C350.186 251.067 348.986 269.467 347.653 287.6C346.32 305.733 345.386 322.267 344.853 337.2C349.12 320.933 355.12 303.6 362.853 285.2C370.853 266.8 379.52 248.533 388.853 230.4C398.453 212 407.92 194.8 417.253 178.8C426.586 162.8 434.986 148.933 442.453 137.2C449.92 125.467 455.386 116.933 458.853 111.6C462.586 106.267 465.786 102.267 468.453 99.6C471.12 96.6667 474.586 95.2 478.853 95.2C482.586 95.2 486.853 96.1333 491.653 98C489.786 102.8 487.12 110 483.653 119.6C480.453 128.933 477.12 140.4 473.653 154C469.386 170.267 465.12 188.8 460.853 209.6C456.586 230.133 452.586 251.067 448.853 272.4C445.386 293.733 442.586 313.867 440.453 332.8C438.32 351.467 437.253 367.2 437.253 380C437.253 385.867 437.52 390.4 438.053 393.6C438.586 396.8 439.253 399.6 440.053 402C441.12 404.667 442.186 408.267 443.253 412.8C434.186 412.8 427.253 411.333 422.453 408.4C417.653 405.467 414.453 400.667 412.853 394C411.253 387.6 410.453 378.933 410.453 368C410.453 336.267 414.453 302.267 422.453 266C430.72 229.467 440.053 191.6 450.453 152.4C442.72 162.267 434.586 174.8 426.053 190C417.786 204.933 409.386 221.2 400.853 238.8C392.586 256.133 384.586 273.6 376.853 291.2C369.386 308.533 362.72 324.667 356.853 339.6C350.986 354.533 346.453 366.933 343.253 376.8C341.653 377.333 340.586 377.733 340.053 378C339.52 378.267 338.586 378.4 337.253 378.4C330.053 378.4 325.253 374.133 322.853 365.6C320.72 357.067 319.653 345.067 319.653 329.6C319.653 318.667 319.92 305.733 320.453 290.8C321.253 275.6 322.053 260 322.853 244C323.653 228 324.32 212.667 324.853 198C325.653 183.067 326.053 170.267 326.053 159.6C326.053 154.267 325.92 149.867 325.653 146.4C325.653 142.933 325.52 139.867 325.253 137.2C303.92 186.8 286.053 229.2 271.653 264.4C257.253 299.333 245.12 327.733 235.253 349.6C225.653 371.467 217.12 387.467 209.653 397.6C202.186 407.733 194.853 412.8 187.653 412.8Z" fill="black"/>
</svg>
