<svg width="100" height="100" viewBox="0 0 100 100" fill="none" xmlns="http://www.w3.org/2000/svg">
<path d="M54.167 33.3332C54.167 21.8272 44.8396 12.4998 33.3337 12.4998C21.8277 12.4998 12.5003 21.8272 12.5003 33.3332C12.5003 44.8391 21.8277 54.1665 33.3337 54.1665C44.8396 54.1665 54.167 44.8391 54.167 33.3332ZM62.5003 33.3332C62.5003 49.4415 49.442 62.4998 33.3337 62.4998C17.2254 62.4998 4.16699 49.4415 4.16699 33.3332C4.16699 17.2249 17.2254 4.1665 33.3337 4.1665C49.442 4.1665 62.5003 17.2249 62.5003 33.3332Z" fill="#9B9B9B"/>
<path d="M71.4725 41.7518C72.277 39.5967 74.6758 38.5026 76.8314 39.3063C81.426 41.0196 85.5167 43.8627 88.7211 47.5745C91.9253 51.2865 94.1424 55.7469 95.1664 60.5425C96.1904 65.3379 95.989 70.315 94.5805 75.0119C93.1715 79.709 90.6001 83.9777 87.1057 87.4183C83.6112 90.8587 79.3038 93.3621 74.5853 94.6977C69.867 96.0332 64.8869 96.1583 60.1078 95.0599C55.3286 93.9612 50.9032 91.673 47.2416 88.4111C43.5799 85.149 40.7978 81.0165 39.1565 76.3953C38.3864 74.2271 39.5195 71.8435 41.6874 71.0731C43.8554 70.3031 46.239 71.4364 47.0096 73.604C48.182 76.905 50.168 79.8594 52.7836 82.1896C55.3991 84.5196 58.5617 86.1533 61.9755 86.9381C65.3888 87.7225 68.9449 87.6315 72.3148 86.6777C75.6853 85.7237 78.7623 83.9351 81.2585 81.4775C83.754 79.0202 85.5908 75.9739 86.5971 72.6193C87.6034 69.2643 87.7474 65.7095 87.0162 62.284C86.2847 58.8582 84.6991 55.6705 82.41 53.0189C80.1211 50.3678 77.1999 48.3342 73.918 47.1107C71.7629 46.3062 70.6689 43.9074 71.4725 41.7518Z" fill="#9B9B9B"/>
<path d="M29.1667 41.6668V29.1668C26.8655 29.1668 25 27.3013 25 25.0002C25 22.699 26.8655 20.8335 29.1667 20.8335H33.3333L33.7606 20.8538C35.8611 21.0677 37.5 22.8432 37.5 25.0002V41.6668C37.5 43.968 35.6345 45.8335 33.3333 45.8335C31.0321 45.8335 29.1667 43.968 29.1667 41.6668Z" fill="#9B9B9B"/>
<path d="M66.7002 54.867C68.3388 53.2514 70.9765 53.2693 72.5922 54.9076L75.5097 57.8658C77.1169 59.496 77.1076 62.1183 75.4893 63.7374L63.738 75.4887C62.111 77.1151 59.4731 77.1151 57.8461 75.4887C56.2191 73.8617 56.2195 71.224 57.8461 69.5968L66.6677 60.7711L66.6596 60.7589C65.0441 59.1203 65.0619 56.4826 66.7002 54.867Z" fill="#9B9B9B"/>
</svg>
